<?xml version="1.0" encoding="UTF-8" standalone="no"?>
<svg width="201px" height="201px" viewBox="0 0 201 201" version="1.1" xmlns="http://www.w3.org/2000/svg" xmlns:xlink="http://www.w3.org/1999/xlink" xmlns:sketch="http://www.bohemiancoding.com/sketch/ns">
    <!-- Generator: Sketch 3.3.3 (12072) - http://www.bohemiancoding.com/sketch -->
    <title>LOGO 200x200</title>
    <desc>Created with Sketch.</desc>
    <defs></defs>
    <g id="Logos" stroke="none" stroke-width="1" fill="none" fill-rule="evenodd" sketch:type="MSPage">
        <g id="LOGO-200x200" sketch:type="MSLayerGroup">
            <rect id="Rectangle-2-Copy-4" fill="#FFEB3B" sketch:type="MSShapeGroup" x="0" y="0" width="200.742188" height="200"></rect>
            <g id="LINCOLN-Copy-2-+-LUG-Copy-2" transform="translate(17.000000, 15.000000)" fill="#000000" sketch:type="MSShapeGroup">
                <path d="M1.02980591,0.64 L2.58799258,0.64 L2.58799258,24.6755556 L16.9303926,24.6755556 L16.9303926,26.0266667 L1.02980591,26.0266667 L1.02980591,0.64 Z M23.0524727,0.64 L24.6106593,0.64 L24.6106593,26.0266667 L23.0524727,26.0266667 L23.0524727,0.64 Z M33.3887395,0.64 L35.3364728,0.64 L51.3078861,23.9288889 L51.3787128,23.9288889 L51.3787128,0.64 L52.9368995,0.64 L52.9368995,26.0266667 L51.0954061,26.0266667 L35.0177528,2.56 L34.9469261,2.56 L34.9469261,26.0266667 L33.3887395,26.0266667 L33.3887395,0.64 Z M60.7588196,13.3333333 C60.7588196,11.4844352 61.0303191,9.74815627 61.5733262,8.12444444 C62.1163334,6.50073262 62.9013211,5.09037636 63.9283129,3.89333333 C64.9553047,2.69629031 66.2183676,1.75407751 67.7175396,1.06666667 C69.2167115,0.379255822 70.9106323,0.0355555556 72.7993529,0.0355555556 C74.2867203,0.0355555556 75.5733919,0.231109156 76.6594062,0.622222222 C77.7454205,1.01333529 78.6602558,1.49925636 79.4039396,2.08 C80.1476233,2.66074364 80.7555461,3.29481138 81.2277262,3.98222222 C81.6999064,4.66963307 82.0599383,5.31555253 82.3078329,5.92 C82.5557275,6.52444747 82.7268902,7.04592373 82.8213262,7.48444444 C82.9157623,7.92296516 82.9629796,8.16592569 82.9629796,8.21333333 L81.4047929,8.21333333 C81.2395298,7.14666133 80.8972044,6.1925968 80.3778062,5.35111111 C79.8584081,4.50962542 79.2091701,3.79259556 78.4300729,3.2 C77.6509757,2.60740444 76.7833577,2.15703858 75.8271929,1.84888889 C74.8710281,1.5407392 73.8617582,1.38666667 72.7993529,1.38666667 C71.1467224,1.38666667 69.6711816,1.70666347 68.3726862,2.34666667 C67.0741908,2.98666987 65.9763885,3.84592053 65.0792462,4.92444444 C64.182104,6.00296836 63.497453,7.26517796 63.0252729,8.71111111 C62.5530928,10.1570443 62.3170062,11.6977696 62.3170062,13.3333333 C62.3170062,14.9688971 62.5530928,16.5096224 63.0252729,17.9555556 C63.497453,19.4014887 64.182104,20.6636983 65.0792462,21.7422222 C65.9763885,22.8207461 67.0741908,23.6799968 68.3726862,24.32 C69.6711816,24.9600032 71.1467224,25.28 72.7993529,25.28 C74.0270213,25.28 75.1779431,25.0251877 76.2521529,24.5155556 C77.3263627,24.0059234 78.2648067,23.3303746 79.0675129,22.4888889 C79.8702191,21.6474032 80.5135549,20.6755611 80.9975396,19.5733333 C81.4815242,18.4711056 81.7589259,17.3274133 81.8297529,16.1422222 L83.3879396,16.1422222 C83.2462855,17.6592668 82.8744492,19.0577714 82.2724196,20.3377778 C81.6703899,21.6177842 80.9031087,22.7259212 79.9705529,23.6622222 C79.0379971,24.5985232 77.9579013,25.3274048 76.7302329,25.8488889 C75.5025645,26.370373 74.1922843,26.6311111 72.7993529,26.6311111 C70.9106323,26.6311111 69.2167115,26.2874108 67.7175396,25.6 C66.2183676,24.9125892 64.9553047,23.9703764 63.9283129,22.7733333 C62.9013211,21.5762903 62.1163334,20.165934 61.5733262,18.5422222 C61.0303191,16.9185104 60.7588196,15.1822315 60.7588196,13.3333333 L60.7588196,13.3333333 Z M113.874393,13.3333333 C113.874393,15.1822315 113.602893,16.9185104 113.059886,18.5422222 C112.516879,20.165934 111.731891,21.5762903 110.7049,22.7733333 C109.677908,23.9703764 108.420747,24.9125892 106.93338,25.6 C105.446012,26.2874108 103.757994,26.6311111 101.869273,26.6311111 C99.9805524,26.6311111 98.2866316,26.2874108 96.7874597,25.6 C95.2882877,24.9125892 94.0252248,23.9703764 92.998233,22.7733333 C91.9712412,21.5762903 91.1862535,20.165934 90.6432463,18.5422222 C90.1002392,16.9185104 89.8287397,15.1822315 89.8287397,13.3333333 C89.8287397,11.4844352 90.1002392,9.74815627 90.6432463,8.12444444 C91.1862535,6.50073262 91.9712412,5.09037636 92.998233,3.89333333 C94.0252248,2.69629031 95.2882877,1.75407751 96.7874597,1.06666667 C98.2866316,0.379255822 99.9805524,0.0355555556 101.869273,0.0355555556 C103.757994,0.0355555556 105.446012,0.379255822 106.93338,1.06666667 C108.420747,1.75407751 109.677908,2.69629031 110.7049,3.89333333 C111.731891,5.09037636 112.516879,6.50073262 113.059886,8.12444444 C113.602893,9.74815627 113.874393,11.4844352 113.874393,13.3333333 L113.874393,13.3333333 Z M91.3869263,13.3333333 C91.3869263,14.9688971 91.6230129,16.5096224 92.095193,17.9555556 C92.5673731,19.4014887 93.2520241,20.6636983 94.1491663,21.7422222 C95.0463086,22.8207461 96.1441109,23.6799968 97.4426063,24.32 C98.7411017,24.9600032 100.216643,25.28 101.869273,25.28 C103.521903,25.28 104.991542,24.9600032 106.278233,24.32 C107.564924,23.6799968 108.656824,22.8207461 109.553966,21.7422222 C110.451109,20.6636983 111.13576,19.4014887 111.60794,17.9555556 C112.08012,16.5096224 112.316206,14.9688971 112.316206,13.3333333 C112.316206,11.6977696 112.08012,10.1570443 111.60794,8.71111111 C111.13576,7.26517796 110.451109,6.00296836 109.553966,4.92444444 C108.656824,3.84592053 107.564924,2.98666987 106.278233,2.34666667 C104.991542,1.70666347 103.521903,1.38666667 101.869273,1.38666667 C100.216643,1.38666667 98.7411017,1.70666347 97.4426063,2.34666667 C96.1441109,2.98666987 95.0463086,3.84592053 94.1491663,4.92444444 C93.2520241,6.00296836 92.5673731,7.26517796 92.095193,8.71111111 C91.6230129,10.1570443 91.3869263,11.6977696 91.3869263,13.3333333 L91.3869263,13.3333333 Z M121.519246,0.64 L123.077433,0.64 L123.077433,24.6755556 L137.419833,24.6755556 L137.419833,26.0266667 L121.519246,26.0266667 L121.519246,0.64 Z M143.541913,0.64 L145.489647,0.64 L161.46106,23.9288889 L161.531887,23.9288889 L161.531887,0.64 L163.090073,0.64 L163.090073,26.0266667 L161.24858,26.0266667 L145.170927,2.56 L145.1001,2.56 L145.1001,26.0266667 L143.541913,26.0266667 L143.541913,0.64 Z" id="LINCOLN-Copy-2"></path>
                <path d="M1.49017924,43.9733333 L5.91684591,43.9733333 L5.91684591,65.52 L18.7718859,65.52 L18.7718859,69.36 L1.49017924,69.36 L1.49017924,43.9733333 Z M25.850126,43.9733333 L30.2767927,43.9733333 L30.2767927,58.7644444 C30.2767927,59.617782 30.3181078,60.4829586 30.4007393,61.36 C30.4833709,62.2370414 30.7194574,63.0251817 31.109006,63.7244444 C31.4985546,64.4237072 32.0887709,64.9985163 32.8796727,65.4488889 C33.6705744,65.8992615 34.7860833,66.1244444 36.2262327,66.1244444 C37.6663821,66.1244444 38.7818909,65.8992615 39.5727927,65.4488889 C40.3636944,64.9985163 40.9539107,64.4237072 41.3434593,63.7244444 C41.733008,63.0251817 41.9690945,62.2370414 42.051726,61.36 C42.1343575,60.4829586 42.1756727,59.617782 42.1756727,58.7644444 L42.1756727,43.9733333 L46.6023393,43.9733333 L46.6023393,60.2222222 C46.6023393,61.857786 46.3544485,63.279994 45.8586593,64.4888889 C45.3628702,65.6977838 44.6605128,66.711107 43.751566,67.5288889 C42.8426192,68.3466708 41.7507191,68.957035 40.4758327,69.36 C39.2009463,69.762965 37.7844271,69.9644444 36.2262327,69.9644444 C34.6680382,69.9644444 33.2515191,69.762965 31.9766327,69.36 C30.7017463,68.957035 29.6098461,68.3466708 28.7008993,67.5288889 C27.7919526,66.711107 27.0895952,65.6977838 26.593806,64.4888889 C26.0980169,63.279994 25.850126,61.857786 25.850126,60.2222222 L25.850126,43.9733333 Z M78.0803661,69.36 L75.2472995,69.36 L74.5744461,66.3733333 C73.3939958,67.7244512 72.2135631,68.6607381 71.0331128,69.1822222 C69.8526624,69.7037063 68.4951649,69.9644444 66.9605795,69.9644444 C65.0718589,69.9644444 63.3779381,69.6148183 61.8787661,68.9155556 C60.3795942,68.2162928 59.1106291,67.2622283 58.0718328,66.0533333 C57.0330365,64.8444384 56.2362444,63.4340821 55.6814328,61.8222222 C55.1266211,60.2103623 54.8492195,58.491861 54.8492195,56.6666667 C54.8492195,54.8651762 55.1266211,53.1585266 55.6814328,51.5466667 C56.2362444,49.9348068 57.0330365,48.5244505 58.0718328,47.3155556 C59.1106291,46.1066606 60.3795942,45.1466702 61.8787661,44.4355556 C63.3779381,43.7244409 65.0718589,43.3688889 66.9605795,43.3688889 C68.3299019,43.3688889 69.6342799,43.5525908 70.8737528,43.92 C72.1132257,44.2874092 73.2169302,44.832589 74.1848995,45.5555556 C75.1528687,46.2785221 75.9555629,47.1851797 76.5930061,48.2755556 C77.2304493,49.3659314 77.6317964,50.6222151 77.7970595,52.0444444 L73.4766328,52.0444444 C73.3585878,51.2148107 73.1047947,50.4859291 72.7152461,49.8577778 C72.3256975,49.2296265 71.835818,48.7022244 71.2455928,48.2755556 C70.6553676,47.8488868 69.9943253,47.52889 69.2624461,47.3155556 C68.5305669,47.1022212 67.7632857,46.9955556 66.9605795,46.9955556 C65.6148661,46.9955556 64.4521399,47.2681454 63.4723661,47.8133333 C62.4925923,48.3585212 61.6958003,49.0874028 61.0819661,50 C60.4681319,50.9125972 60.0136654,51.9496238 59.7185528,53.1111111 C59.4234402,54.2725984 59.2758861,55.4577717 59.2758861,56.6666667 C59.2758861,57.8755616 59.4234402,59.0607349 59.7185528,60.2222222 C60.0136654,61.3837095 60.4681319,62.4207362 61.0819661,63.3333333 C61.6958003,64.2459305 62.4925923,64.9748121 63.4723661,65.52 C64.4521399,66.0651879 65.6148661,66.3377778 66.9605795,66.3377778 C68.0938118,66.3614816 69.0971795,66.2133349 69.9707128,65.8933333 C70.844246,65.5733317 71.5820164,65.1111141 72.1840461,64.5066667 C72.7860758,63.9022192 73.2405424,63.1614859 73.5474595,62.2844444 C73.8543765,61.407403 74.0196371,60.4355609 74.0432461,59.3688889 L67.3147128,59.3688889 L67.3147128,55.9911111 L78.0803661,55.9911111 L78.0803661,69.36 Z" id="LUG-Copy-2"></path>
            </g>
            <g id="Tux-Copy" transform="translate(132.158548, 146.500000) scale(-1, 1) rotate(180.000000) translate(-132.158548, -146.500000) translate(72.658548, 92.000000)" fill="#11141F" sketch:type="MSShapeGroup">
                <path d="M29.3223147,98.8972433 C21.081508,89.9464236 19.415813,82.3996541 19.7664856,56.4247264 L19.9418219,37.4700495 L18.3637951,31.8538489 C16.2597594,24.0438199 12.8407012,17.6378412 6.52859396,9.47679969 C3.54787663,5.70341493 0.0807267836,1.19130189 0.0807267836,1.01579562 C0.0807267836,0.840289356 5.5996939,1.01579562 10.8597833,1.01579562 L19.9418222,1.01579562 L23.0102074,10.0033185 C24.4128979,14.4787283 26.0785929,20.7092008 26.69227,23.8683137 C27.3059471,27.0274265 27.831956,29.7477737 28.0072924,29.9232799 C28.1826287,30.0987862 30.6373371,28.4314766 33.5303862,26.2376483 C36.3357673,23.9560668 39.7548254,21.7622385 41.0698477,21.2357197 C45.4532556,19.5684101 51.2393539,20.182682 56.4117752,22.9907823 C59.0418199,24.3948325 63.600564,26.7641671 66.4936132,28.0804641 C69.3866623,29.4845143 72.542716,31.5028363 73.4193976,32.4681208 L75.0850925,34.3986898 L77.8904736,25.7988826 C79.3808322,21.1479665 82.0108769,13.7767033 83.6765719,9.56455283 L87.6286489,1.01579562 L101.954065,1.01579562 C110.194872,1.01579562 118.043284,0.752536222 118.043284,1.01579562 C118.043284,1.27905503 113.571413,7.19521821 109.538678,12.2849 C95.9501138,29.6600205 94.1090826,34.7497023 94.1090826,55.1084294 C94.1090826,87.3138296 86.4819529,102.933887 68.2469763,107.672557 C62.7238824,109.076607 53.0803852,109.252113 46.9436142,108.023569 C40.5438388,106.795025 32.9167091,102.846134 29.3223147,98.8972433 Z M73.5070657,51.6692382 L72.1920434,48.5101254 L69.8250031,49.1243973 C67.6474813,49.6148146 65.3455718,51.3196805 65.3455718,51.3196805 C65.3455718,51.3196805 66.7085289,53.2197258 67.1072903,54.9161041 C68.1593082,59.4792671 67.2211561,62.9956487 63.9774343,65.1017239 C63.9774343,65.1017239 63.2548752,65.5698033 61.974508,65.3431735 C60.6941409,65.1165437 59.4801606,64.3056895 59.4801606,64.3056895 C57.9021338,62.9016393 57.0254522,61.1465767 56.6747796,58.6894889 L56.2364388,55.0916104 L53.6940623,55.9691418 L51.1516857,56.9344262 L51.1516857,60.5323047 C51.2393539,71.2381871 60.5321785,78.0829315 68.4223126,73.2565092 C74.208411,69.7463838 76.6631194,59.2160077 73.5070657,51.6692382 Z M37.8261259,70.4484089 C39.8424935,68.1668274 40.9821796,65.5342334 41.8588611,60.7955641 L42.4725382,57.5486982 L39.9301617,56.2324012 L37.300117,54.9161041 L36.8617762,57.9874638 C36.5987717,59.7425265 35.8974265,61.6730955 35.2837494,62.3751205 C33.8810589,64.1301832 31.163346,63.8669238 30.1113281,61.9363549 C28.7963058,59.4792671 29.0593102,53.7753134 30.4620008,51.6692382 L31.6893549,49.9141755 L30.02366,48.8611379 L28.2702968,47.7203472 L26.6046019,51.4937319 C24.7635706,55.5303761 24.3252298,62.9893925 25.7279203,66.587271 C27.9196242,72.2912247 34.1440633,74.3095468 37.8261259,70.4484089 L37.8261259,70.4484089 Z M57.9021338,51.9324976 C61.2335238,50.265188 65.3539271,48.4223722 67.1072903,47.8958534 C72.2797115,46.2285439 74.8220881,43.7714561 74.8220881,40.436837 C74.8220881,36.3124397 72.1043752,33.3288332 65.3539271,30.1697203 C62.1102053,28.5901639 58.4281428,26.659595 57.2007886,25.7820636 C53.8693986,23.5004822 47.6449595,22.0086789 44.050565,22.710704 C42.2095338,23.0617165 37.8261259,25.6065574 33.4427181,28.9411765 C22.8348711,36.9267117 21.7828532,40.5245902 28.5333013,45.2632594 C30.1113281,46.4040501 33.0920455,48.6856316 35.1084131,50.4406943 C42.0341974,56.4956606 47.9956321,56.8466731 57.9021338,51.9324976 L57.9021338,51.9324976 Z" id="Shape"></path>
                <path d="M61.2335238,37.2777242 C47.2942868,29.6432015 41.245184,29.5554484 32.0400276,37.1022179 C25.9909248,42.0163934 24.7635706,40.9633558 30.5496689,35.8736741 C35.8097583,31.222758 41.8588611,29.0289296 47.5572913,29.6432015 C53.6063941,30.3452266 74.9097562,41.753134 69.8250031,41.6653809 C69.4743305,41.6653809 65.6169316,39.6470588 61.2335238,37.2777242 L61.2335238,37.2777242 Z" id="Shape"></path>
            </g>
        </g>
    </g>
</svg>